<?xml version="1.0" standalone="no"?><!DOCTYPE svg PUBLIC "-//W3C//DTD SVG 1.1//EN" "http://www.w3.org/Graphics/SVG/1.1/DTD/svg11.dtd"><svg t="1536741775439" class="icon" style="" viewBox="0 0 1024 1024" version="1.1" xmlns="http://www.w3.org/2000/svg" p-id="1890" xmlns:xlink="http://www.w3.org/1999/xlink" width="200" height="200"><defs><style type="text/css"></style></defs><path d="M753.485908 1013.55102 628.098152 1013.55102 565.404275 1013.55102 440.01652 1013.55102 377.322642 1013.55102 251.934887 1013.55102 1.159377 1013.55102 1.159377 982.173717 1.159377 950.859107 1.159377 198.52474 251.934887 198.52474 251.934887 10.44898 753.485908 10.44898 753.485908 198.52474 1004.261418 198.52474 1004.261418 950.859107 1004.261418 982.173717 1004.261418 1013.55102 753.485908 1013.55102 753.485908 1013.55102ZM251.934887 261.248 63.853255 261.248 63.853255 950.859107 251.934887 950.859107 251.934887 261.248 251.934887 261.248ZM440.01652 950.859107 565.404275 950.859107 565.404275 825.443913 440.01652 825.443913 440.01652 950.859107 440.01652 950.859107ZM690.79203 198.52474 690.79203 73.140893 314.628765 73.140893 314.628765 198.52474 314.628765 950.859107 377.322642 950.859107 377.322642 825.443913 377.322642 762.752 440.01652 762.752 565.404275 762.752 628.098152 762.752 628.098152 825.443913 628.098152 950.859107 690.79203 950.859107 690.79203 198.52474 690.79203 198.52474ZM941.56754 261.248 753.485908 261.248 753.485908 950.859107 941.56754 950.859107 941.56754 261.248 941.56754 261.248ZM878.873663 449.32376 816.179785 449.32376 816.179785 386.631826 878.873663 386.631826 878.873663 449.32376 878.873663 449.32376ZM878.873663 637.368174 816.179785 637.368174 816.179785 574.644893 878.873663 574.644893 878.873663 637.368174 878.873663 637.368174ZM878.873663 825.443913 816.179785 825.443913 816.179785 762.752 878.873663 762.752 878.873663 825.443913 878.873663 825.443913ZM377.322642 574.644893 628.098152 574.644893 628.098152 637.368174 377.322642 637.368174 377.322642 574.644893 377.322642 574.644893ZM377.322642 386.631826 628.098152 386.631826 628.098152 449.32376 377.322642 449.32376 377.322642 386.631826 377.322642 386.631826ZM377.322642 198.52474 628.098152 198.52474 628.098152 261.248 377.322642 261.248 377.322642 198.52474 377.322642 198.52474ZM189.24101 449.32376 126.547132 449.32376 126.547132 386.631826 189.24101 386.631826 189.24101 449.32376 189.24101 449.32376ZM189.24101 637.368174 126.547132 637.368174 126.547132 574.644893 189.24101 574.644893 189.24101 637.368174 189.24101 637.368174ZM189.24101 825.443913 126.547132 825.443913 126.547132 762.752 189.24101 762.752 189.24101 825.443913 189.24101 825.443913Z" p-id="1891"></path></svg>