<?xml version="1.0" standalone="no"?><!DOCTYPE svg PUBLIC "-//W3C//DTD SVG 1.1//EN" "http://www.w3.org/Graphics/SVG/1.1/DTD/svg11.dtd"><svg t="1536637001349" class="icon" style="" viewBox="0 0 1024 1024" version="1.1" xmlns="http://www.w3.org/2000/svg" p-id="1759" xmlns:xlink="http://www.w3.org/1999/xlink" width="200" height="200"><defs><style type="text/css"></style></defs><path d="M817.80224 795.89888h20.39808c13.59872 0.1024 23.30112 9.09824 23.30112 21.80096 0 12.60032-9.79968 21.80096-23.30112 21.80096H185.4976c-12.20096 0-21.49888-7.30112-23.10144-18.0992-1.69984-11.49952 4.70016-21.69856 15.69792-24.69888 2.40128-0.70144 5.09952-0.70144 7.59808-0.79872 6.5024-0.1024 12.99968 0 20.1984 0V250.50112c0-31.80032 20.3008-57.90208 50.60096-64.9984 5.20192-1.19808 10.79808-1.69984 16.19968-1.69984 101.09952-0.1024 202.19904-0.1024 303.20128-0.1024 38.70208 0 67.0976 28.60032 67.0976 67.39968v544.30208h131.00032c0.1024-1.50016 0.19968-3.0976 0.19968-4.70016V470.20032c0-15.40096-8.80128-24.29952-24.09984-24.29952-13.9008 0-27.8016 0.1024-41.7024-0.1024-11.49952-0.19968-20.3008-8.40192-21.60128-19.79904-1.19808-10.30144 5.89824-20.39808 16.39936-23.10144 2.2016-0.59904 4.50048-0.59904 6.70208-0.59904 13.9008-0.1024 27.8016-0.1024 41.7024 0 37.49888 0.1024 66.29888 28.8 66.29888 66.40128 0.1024 106.99776 0 213.89824 0 320.90112-0.08704 2.0992-0.08704 3.99872-0.08704 6.2976z m-568.50432-0.19968h349.70112c0.1024-1.69984 0.19968-3.2 0.19968-4.70016V251.60192c0-15.09888-8.89856-24.00256-23.90016-24.00256H272.9984c-2.40128 0-4.89984 0.1024-7.19872 0.70144-10.7008 2.80064-16.39936 11.20256-16.39936 24.00256v538.50112c-0.1024 1.39776-0.1024 2.89792-0.1024 4.89472z m175.104-458.99776c-21.49888 0-42.90048 0.1024-64.30208 0-12.00128-0.1024-20.79744-6.90176-22.79936-17.39776-2.69824-14.10048 7.3984-26.19904 22.00064-26.30144 23.10144-0.1024 46.19776 0 69.2992 0 20.1984 0 40.4992-0.1024 60.6976 0 9.79968 0 17.89952 5.80096 21.00224 14.40256a22.17472 22.17472 0 0 1-6.5024 24.29952c-4.80256 3.99872-10.39872 5.09952-16.50176 5.09952-20.99712-0.1024-41.89696-0.1024-62.89408-0.1024z m-0.39936 109.39904c-21.60128 0-43.20256 0.1024-64.79872 0-14.60224-0.1024-24.6016-12.20096-22.00064-26.30144 1.80224-9.7024 10.39872-17.19808 20.50048-17.19808 44.29824-0.1024 88.4992-0.1024 132.80256 0 11.89888 0 21.00224 9.7024 21.00224 21.60128 0 12.20096-9.29792 21.80096-21.80096 21.89824-21.90848 0.09728-43.80672 0-65.70496 0z m-0.1024 175.0016c22.20032 0 44.40064-0.19968 66.60096 0.1024 15.8976 0.19968 25.99936 16.9984 18.89792 31.20128-4.1984 8.4992-11.49952 12.40064-21.00224 12.40064H358.4c-12.09856-0.30208-21.60128-9.79968-21.69856-21.69856a21.57568 21.57568 0 0 1 21.4016-21.80096c21.99552-0.4096 43.89888-0.3072 65.79712-0.2048z m0.19968-65.80224c-21.60128 0-43.20256 0.1024-64.79872 0-16.19968-0.1024-26.79808-15.09888-21.00224-29.59872 3.59936-9.09824 10.7008-13.99808 20.3008-13.99808 43.60192-0.19968 87.30112-0.19968 130.89792 0 12.8 0.1024 22.09792 9.79968 22.00064 22.20032-0.1024 12.20096-9.40032 21.2992-22.20032 21.4016-21.69856 0.09728-43.49952-0.00512-65.19808-0.00512z" p-id="1760"></path></svg>